<svg viewBox="0 0 100 100" fill="none" xmlns="http://www.w3.org/2000/svg">
  <defs>
    <mask id="tt-fav-mask">
      <rect width="100" height="100" fill="#ffffff" />
      <path d="M 77.6 73.1 A 36 36 0 1 1 81.5 35.8" stroke="#000000" stroke-width="2.2" stroke-linecap="round"/>
      <path d="M 81.5 84.9 L 78.3 72.2 L 65.8 69.4 M 62.7 95.3 L 65.4 82.5 L 55.5 74.4 M 41.1 96.2 L 49.3 86.0 L 44.1 74.3 M 21.5 87.4 L 33.3 81.9 L 33.9 69.1 M 7.8 70.7 L 20.8 71.1 L 27.0 59.9 M 3.0 49.7 L 14.5 55.9 L 25.0 48.6 M 8.1 28.8 L 15.6 39.4 L 28.3 37.6 M 22.0 12.3 L 23.9 25.2 L 36.1 29.2 M 41.7 3.7 L 37.8 16.1 L 46.8 25.2 M 63.2 4.9 L 54.2 14.2 L 58.2 26.4 M 82.0 15.6 L 69.7 19.9 L 67.9 32.5" stroke="#000000" stroke-width="2.8" stroke-linecap="round" stroke-linejoin="round"/>
    </mask>
  </defs>
  <style>
    .fav-track { stroke: #171815; }
    .fav-accent { stroke: #c99022; }
    @media (prefers-color-scheme: dark) {
      .fav-track { stroke: #f4f3ee; }
      .fav-accent { stroke: #efbd59; }
    }
  </style>
  <path class="fav-track" d="M 77.6 73.1 A 36 36 0 1 1 75.5 24.5" stroke-width="18" stroke-linecap="round" mask="url(#tt-fav-mask)"/>
  <path class="fav-accent" d="M 75.5 24.5 A 36 36 0 0 1 81.5 35.8" stroke-width="18" stroke-linecap="round" mask="url(#tt-fav-mask)"/>
</svg>